<mxfile host="app.diagrams.net" agent="Mozilla/5.0 (Windows NT 10.0; Win64; x64) AppleWebKit/537.36 (KHTML, like Gecko) Chrome/129.0.0.0 Safari/537.36" version="24.7.17">
  <diagram name="PÃ¡gina-1" id="NAXlRRQ9cC90wg30EzE7">
    <mxGraphModel dx="1434" dy="756" grid="1" gridSize="10" guides="1" tooltips="1" connect="1" arrows="1" fold="1" page="1" pageScale="1" pageWidth="827" pageHeight="1169" background="#ffffff" math="0" shadow="0">
      <root>
        <mxCell id="0" />
        <mxCell id="1" parent="0" />
        <mxCell id="gjcbundcsWc_VyG95JCe-1" value="&lt;b&gt;&lt;font style=&quot;font-size: 14px;&quot;&gt;Declarar X = 1&lt;br&gt;&lt;/font&gt;&lt;/b&gt;&lt;b style=&quot;font-size: 14px;&quot;&gt;Declarar Resultado = X&lt;/b&gt;&lt;b&gt;&lt;font style=&quot;font-size: 14px;&quot;&gt;&lt;br&gt;&lt;/font&gt;&lt;/b&gt;" style="rounded=0;whiteSpace=wrap;html=1;" vertex="1" parent="1">
          <mxGeometry x="324.5" y="170" width="161" height="60" as="geometry" />
        </mxCell>
        <mxCell id="gjcbundcsWc_VyG95JCe-2" value="&lt;font style=&quot;font-size: 20px;&quot;&gt;&lt;b&gt;Inicio&lt;/b&gt;&lt;/font&gt;" style="ellipse;whiteSpace=wrap;html=1;" vertex="1" parent="1">
          <mxGeometry x="354" y="50" width="115" height="50" as="geometry" />
        </mxCell>
        <mxCell id="gjcbundcsWc_VyG95JCe-3" value="&lt;font style=&quot;font-size: 15px;&quot;&gt;Programa mostrar numeros impares del 1 al 10 por pantalla&lt;/font&gt;" style="text;html=1;align=center;verticalAlign=middle;resizable=0;points=[];autosize=1;strokeColor=none;fillColor=none;" vertex="1" parent="1">
          <mxGeometry width="420" height="30" as="geometry" />
        </mxCell>
        <mxCell id="gjcbundcsWc_VyG95JCe-5" value="&lt;font style=&quot;font-size: 14px;&quot;&gt;&lt;b&gt;Si Resultado &amp;lt; 10&lt;/b&gt;&lt;/font&gt;" style="rhombus;whiteSpace=wrap;html=1;" vertex="1" parent="1">
          <mxGeometry x="320" y="280" width="170" height="100" as="geometry" />
        </mxCell>
        <mxCell id="gjcbundcsWc_VyG95JCe-7" value="&lt;b&gt;&lt;font style=&quot;font-size: 17px;&quot;&gt;Fin&lt;/font&gt;&lt;/b&gt;" style="ellipse;whiteSpace=wrap;html=1;" vertex="1" parent="1">
          <mxGeometry x="630" y="300" width="90" height="60" as="geometry" />
        </mxCell>
        <mxCell id="gjcbundcsWc_VyG95JCe-8" value="" style="endArrow=classic;html=1;rounded=0;" edge="1" parent="1">
          <mxGeometry width="50" height="50" relative="1" as="geometry">
            <mxPoint x="408.5" y="100" as="sourcePoint" />
            <mxPoint x="408.5" y="170" as="targetPoint" />
          </mxGeometry>
        </mxCell>
        <mxCell id="gjcbundcsWc_VyG95JCe-9" value="" style="endArrow=classic;html=1;rounded=0;" edge="1" parent="1">
          <mxGeometry width="50" height="50" relative="1" as="geometry">
            <mxPoint x="404.5" y="230" as="sourcePoint" />
            <mxPoint x="404.5" y="280" as="targetPoint" />
          </mxGeometry>
        </mxCell>
        <mxCell id="gjcbundcsWc_VyG95JCe-10" value="" style="endArrow=classic;html=1;rounded=0;entryX=0;entryY=0.5;entryDx=0;entryDy=0;" edge="1" parent="1" target="gjcbundcsWc_VyG95JCe-7">
          <mxGeometry width="50" height="50" relative="1" as="geometry">
            <mxPoint x="490" y="329.5" as="sourcePoint" />
            <mxPoint x="620" y="329.5" as="targetPoint" />
          </mxGeometry>
        </mxCell>
        <mxCell id="gjcbundcsWc_VyG95JCe-11" value="" style="endArrow=classic;html=1;rounded=0;" edge="1" parent="1">
          <mxGeometry width="50" height="50" relative="1" as="geometry">
            <mxPoint x="408.5" y="380" as="sourcePoint" />
            <mxPoint x="410" y="450" as="targetPoint" />
          </mxGeometry>
        </mxCell>
        <mxCell id="gjcbundcsWc_VyG95JCe-12" value="&lt;b&gt;&lt;font style=&quot;font-size: 16px;&quot;&gt;SI&lt;/font&gt;&lt;/b&gt;" style="text;html=1;align=center;verticalAlign=middle;resizable=0;points=[];autosize=1;strokeColor=none;fillColor=none;" vertex="1" parent="1">
          <mxGeometry x="414" y="410" width="40" height="30" as="geometry" />
        </mxCell>
        <mxCell id="gjcbundcsWc_VyG95JCe-13" value="&lt;b&gt;&lt;font style=&quot;font-size: 16px;&quot;&gt;NO&lt;/font&gt;&lt;/b&gt;" style="text;html=1;align=center;verticalAlign=middle;resizable=0;points=[];autosize=1;strokeColor=none;fillColor=none;" vertex="1" parent="1">
          <mxGeometry x="520" y="280" width="50" height="30" as="geometry" />
        </mxCell>
        <mxCell id="gjcbundcsWc_VyG95JCe-15" value="&lt;div&gt;&lt;span style=&quot;font-size: 14px;&quot;&gt;&lt;b&gt;Incrementar X en 1 (X++)&lt;/b&gt;&lt;/span&gt;&lt;/div&gt;&lt;div&gt;&lt;font size=&quot;1&quot;&gt;&lt;b style=&quot;font-size: 14px;&quot;&gt;Establecer Resultado = X * 2 - 1&lt;/b&gt;&lt;/font&gt;&lt;/div&gt;" style="rounded=0;whiteSpace=wrap;html=1;" vertex="1" parent="1">
          <mxGeometry x="298.5" y="570" width="231" height="60" as="geometry" />
        </mxCell>
        <mxCell id="gjcbundcsWc_VyG95JCe-16" value="&lt;b&gt;&lt;font style=&quot;font-size: 16px;&quot;&gt;Mostrar Resultado&lt;/font&gt;&lt;/b&gt;" style="shape=parallelogram;perimeter=parallelogramPerimeter;whiteSpace=wrap;html=1;fixedSize=1;" vertex="1" parent="1">
          <mxGeometry x="354" y="450" width="120" height="60" as="geometry" />
        </mxCell>
        <mxCell id="gjcbundcsWc_VyG95JCe-17" value="" style="endArrow=classic;html=1;rounded=0;" edge="1" parent="1">
          <mxGeometry width="50" height="50" relative="1" as="geometry">
            <mxPoint x="413" y="510" as="sourcePoint" />
            <mxPoint x="413" y="565" as="targetPoint" />
          </mxGeometry>
        </mxCell>
        <mxCell id="gjcbundcsWc_VyG95JCe-20" value="" style="endArrow=classic;html=1;rounded=0;" edge="1" parent="1">
          <mxGeometry width="50" height="50" relative="1" as="geometry">
            <mxPoint x="290" y="600" as="sourcePoint" />
            <mxPoint x="321.05" y="330" as="targetPoint" />
            <Array as="points">
              <mxPoint x="120" y="600" />
              <mxPoint x="120" y="330" />
            </Array>
          </mxGeometry>
        </mxCell>
      </root>
    </mxGraphModel>
  </diagram>
</mxfile>
